<svg xmlns="http://www.w3.org/2000/svg" xmlns:xlink="http://www.w3.org/1999/xlink" contentStyleType="text/css" height="1118px" preserveAspectRatio="none" style="width:895px;height:1118px;background:#FFFFFF;" version="1.1" viewBox="0 0 895 1118" width="895px" zoomAndPan="magnify"><defs/><g><line style="stroke:#181818;stroke-width:0.5;stroke-dasharray:5.0,5.0;" x1="23" x2="23" y1="81.2969" y2="1037.3516"/><line style="stroke:#181818;stroke-width:0.5;stroke-dasharray:5.0,5.0;" x1="251.5581" x2="251.5581" y1="81.2969" y2="1037.3516"/><line style="stroke:#181818;stroke-width:0.5;stroke-dasharray:5.0,5.0;" x1="531.186" x2="531.186" y1="81.2969" y2="1037.3516"/><line style="stroke:#181818;stroke-width:0.5;stroke-dasharray:5.0,5.0;" x1="713.2979" x2="713.2979" y1="81.2969" y2="1037.3516"/><line style="stroke:#181818;stroke-width:0.5;stroke-dasharray:5.0,5.0;" x1="842.374" x2="842.374" y1="81.2969" y2="1037.3516"/><text fill="#000000" font-family="sans-serif" font-size="14" lengthAdjust="spacing" textLength="31.9102" x="5" y="77.9951">User</text><ellipse cx="23.9551" cy="13.5" fill="#E2E2F0" rx="8" ry="8" style="stroke:#181818;stroke-width:0.5;"/><path d="M23.9551,21.5 L23.9551,48.5 M10.9551,29.5 L36.9551,29.5 M23.9551,48.5 L10.9551,63.5 M23.9551,48.5 L36.9551,63.5 " fill="none" style="stroke:#181818;stroke-width:0.5;"/><text fill="#000000" font-family="sans-serif" font-size="14" lengthAdjust="spacing" textLength="31.9102" x="5" y="1049.3467">User</text><ellipse cx="23.9551" cy="1061.1484" fill="#E2E2F0" rx="8" ry="8" style="stroke:#181818;stroke-width:0.5;"/><path d="M23.9551,1069.1484 L23.9551,1096.1484 M10.9551,1077.1484 L36.9551,1077.1484 M23.9551,1096.1484 L10.9551,1111.1484 M23.9551,1096.1484 L36.9551,1111.1484 " fill="none" style="stroke:#181818;stroke-width:0.5;"/><rect fill="#E2E2F0" height="30.2969" rx="2.5" ry="2.5" style="stroke:#181818;stroke-width:0.5;" width="36.1484" x="233.5581" y="50"/><text fill="#000000" font-family="sans-serif" font-size="14" lengthAdjust="spacing" textLength="22.1484" x="240.5581" y="69.9951">API</text><rect fill="#E2E2F0" height="30.2969" rx="2.5" ry="2.5" style="stroke:#181818;stroke-width:0.5;" width="36.1484" x="233.5581" y="1036.3516"/><text fill="#000000" font-family="sans-serif" font-size="14" lengthAdjust="spacing" textLength="22.1484" x="240.5581" y="1056.3467">API</text><rect fill="#E2E2F0" height="30.2969" rx="2.5" ry="2.5" style="stroke:#181818;stroke-width:0.5;" width="133.7451" x="465.186" y="50"/><text fill="#000000" font-family="sans-serif" font-size="14" lengthAdjust="spacing" textLength="119.7451" x="472.186" y="69.9951">CustomerService</text><rect fill="#E2E2F0" height="30.2969" rx="2.5" ry="2.5" style="stroke:#181818;stroke-width:0.5;" width="133.7451" x="465.186" y="1036.3516"/><text fill="#000000" font-family="sans-serif" font-size="14" lengthAdjust="spacing" textLength="119.7451" x="472.186" y="1056.3467">CustomerService</text><rect fill="#E2E2F0" height="30.2969" rx="2.5" ry="2.5" style="stroke:#181818;stroke-width:0.5;" width="157.0762" x="635.2979" y="50"/><text fill="#000000" font-family="sans-serif" font-size="14" lengthAdjust="spacing" textLength="143.0762" x="642.2979" y="69.9951">CustomerRepository</text><rect fill="#E2E2F0" height="30.2969" rx="2.5" ry="2.5" style="stroke:#181818;stroke-width:0.5;" width="157.0762" x="635.2979" y="1036.3516"/><text fill="#000000" font-family="sans-serif" font-size="14" lengthAdjust="spacing" textLength="143.0762" x="642.2979" y="1056.3467">CustomerRepository</text><rect fill="#E2E2F0" height="30.2969" rx="2.5" ry="2.5" style="stroke:#181818;stroke-width:0.5;" width="81.3545" x="802.374" y="50"/><text fill="#000000" font-family="sans-serif" font-size="14" lengthAdjust="spacing" textLength="67.3545" x="809.374" y="69.9951">MongoDB</text><rect fill="#E2E2F0" height="30.2969" rx="2.5" ry="2.5" style="stroke:#181818;stroke-width:0.5;" width="81.3545" x="802.374" y="1036.3516"/><text fill="#000000" font-family="sans-serif" font-size="14" lengthAdjust="spacing" textLength="67.3545" x="809.374" y="1056.3467">MongoDB</text><rect fill="#EEEEEE" height="3" style="stroke:#EEEEEE;stroke-width:1.0;" width="888.7285" x="0" y="111.8633"/><line style="stroke:#000000;stroke-width:1.0;" x1="0" x2="888.7285" y1="111.8633" y2="111.8633"/><line style="stroke:#000000;stroke-width:1.0;" x1="0" x2="888.7285" y1="114.8633" y2="114.8633"/><rect fill="#EEEEEE" height="23.1328" style="stroke:#000000;stroke-width:2.0;" width="200.5068" x="344.1108" y="101.2969"/><text fill="#000000" font-family="sans-serif" font-size="13" font-weight="bold" lengthAdjust="spacing" textLength="181.981" x="350.1108" y="117.3638">Obtener un cliente (GET)</text><polygon fill="#181818" points="239.6323,151.5625,249.6323,155.5625,239.6323,159.5625,243.6323,155.5625" style="stroke:#181818;stroke-width:1.0;"/><line style="stroke:#181818;stroke-width:1.0;" x1="23.9551" x2="245.6323" y1="155.5625" y2="155.5625"/><text fill="#000000" font-family="sans-serif" font-size="13" lengthAdjust="spacing" textLength="180.0703" x="30.9551" y="150.4966">GET /api/v1/customers/{id}</text><polygon fill="#181818" points="520.0586,180.6953,530.0586,184.6953,520.0586,188.6953,524.0586,184.6953" style="stroke:#181818;stroke-width:1.0;"/><line style="stroke:#181818;stroke-width:1.0;" x1="251.6323" x2="526.0586" y1="184.6953" y2="184.6953"/><text fill="#000000" font-family="sans-serif" font-size="13" lengthAdjust="spacing" textLength="138.5313" x="258.6323" y="179.6294">findCustomerById(id)</text><polygon fill="#181818" points="701.8359,209.8281,711.8359,213.8281,701.8359,217.8281,705.8359,213.8281" style="stroke:#181818;stroke-width:1.0;"/><line style="stroke:#181818;stroke-width:1.0;" x1="532.0586" x2="707.8359" y1="213.8281" y2="213.8281"/><text fill="#000000" font-family="sans-serif" font-size="13" lengthAdjust="spacing" textLength="75.3848" x="539.0586" y="208.7622">findById(id)</text><polygon fill="#181818" points="831.0513,238.9609,841.0513,242.9609,831.0513,246.9609,835.0513,242.9609" style="stroke:#181818;stroke-width:1.0;"/><line style="stroke:#181818;stroke-width:1.0;" x1="713.8359" x2="837.0513" y1="242.9609" y2="242.9609"/><text fill="#000000" font-family="sans-serif" font-size="13" lengthAdjust="spacing" textLength="73.6011" x="720.8359" y="237.895">query by id</text><polygon fill="#181818" points="724.8359,252.9609,714.8359,256.9609,724.8359,260.9609,720.8359,256.9609" style="stroke:#181818;stroke-width:1.0;"/><line style="stroke:#181818;stroke-width:1.0;stroke-dasharray:2.0,2.0;" x1="718.8359" x2="842.0513" y1="256.9609" y2="256.9609"/><polygon fill="#181818" points="543.0586,266.9609,533.0586,270.9609,543.0586,274.9609,539.0586,270.9609" style="stroke:#181818;stroke-width:1.0;"/><line style="stroke:#181818;stroke-width:1.0;stroke-dasharray:2.0,2.0;" x1="537.0586" x2="712.8359" y1="270.9609" y2="270.9609"/><polygon fill="#181818" points="262.6323,280.9609,252.6323,284.9609,262.6323,288.9609,258.6323,284.9609" style="stroke:#181818;stroke-width:1.0;"/><line style="stroke:#181818;stroke-width:1.0;stroke-dasharray:2.0,2.0;" x1="256.6323" x2="531.0586" y1="284.9609" y2="284.9609"/><polygon fill="#181818" points="34.9551,310.0938,24.9551,314.0938,34.9551,318.0938,30.9551,314.0938" style="stroke:#181818;stroke-width:1.0;"/><line style="stroke:#181818;stroke-width:1.0;stroke-dasharray:2.0,2.0;" x1="28.9551" x2="250.6323" y1="314.0938" y2="314.0938"/><text fill="#000000" font-family="sans-serif" font-size="13" lengthAdjust="spacing" textLength="24.813" x="40.9551" y="309.0278">200</text><rect fill="#EEEEEE" height="3" style="stroke:#EEEEEE;stroke-width:1.0;" width="888.7285" x="0" y="342.6602"/><line style="stroke:#000000;stroke-width:1.0;" x1="0" x2="888.7285" y1="342.6602" y2="342.6602"/><line style="stroke:#000000;stroke-width:1.0;" x1="0" x2="888.7285" y1="345.6602" y2="345.6602"/><rect fill="#EEEEEE" height="23.1328" style="stroke:#000000;stroke-width:2.0;" width="190.979" x="348.8748" y="332.0938"/><text fill="#000000" font-family="sans-serif" font-size="13" font-weight="bold" lengthAdjust="spacing" textLength="172.4531" x="354.8748" y="348.1606">Crear un cliente (POST)</text><polygon fill="#181818" points="239.6323,382.3594,249.6323,386.3594,239.6323,390.3594,243.6323,386.3594" style="stroke:#181818;stroke-width:1.0;"/><line style="stroke:#181818;stroke-width:1.0;" x1="23.9551" x2="245.6323" y1="386.3594" y2="386.3594"/><text fill="#000000" font-family="sans-serif" font-size="13" lengthAdjust="spacing" textLength="155.3208" x="30.9551" y="381.2935">POST /api/v1/customers</text><polygon fill="#181818" points="520.0586,411.4922,530.0586,415.4922,520.0586,419.4922,524.0586,415.4922" style="stroke:#181818;stroke-width:1.0;"/><line style="stroke:#181818;stroke-width:1.0;" x1="251.6323" x2="526.0586" y1="415.4922" y2="415.4922"/><text fill="#000000" font-family="sans-serif" font-size="13" lengthAdjust="spacing" textLength="204.8579" x="258.6323" y="410.4263">createCustomer(newCustomer)</text><polygon fill="#181818" points="701.8359,440.625,711.8359,444.625,701.8359,448.625,705.8359,444.625" style="stroke:#181818;stroke-width:1.0;"/><line style="stroke:#181818;stroke-width:1.0;" x1="532.0586" x2="707.8359" y1="444.625" y2="444.625"/><text fill="#000000" font-family="sans-serif" font-size="13" lengthAdjust="spacing" textLength="130.5903" x="539.0586" y="439.5591">save(newCustomer)</text><polygon fill="#181818" points="831.0513,454.625,841.0513,458.625,831.0513,462.625,835.0513,458.625" style="stroke:#181818;stroke-width:1.0;"/><line style="stroke:#181818;stroke-width:1.0;stroke-dasharray:2.0,2.0;" x1="713.8359" x2="837.0513" y1="458.625" y2="458.625"/><polygon fill="#181818" points="724.8359,468.625,714.8359,472.625,724.8359,476.625,720.8359,472.625" style="stroke:#181818;stroke-width:1.0;"/><line style="stroke:#181818;stroke-width:1.0;stroke-dasharray:2.0,2.0;" x1="718.8359" x2="842.0513" y1="472.625" y2="472.625"/><polygon fill="#181818" points="543.0586,482.625,533.0586,486.625,543.0586,490.625,539.0586,486.625" style="stroke:#181818;stroke-width:1.0;"/><line style="stroke:#181818;stroke-width:1.0;stroke-dasharray:2.0,2.0;" x1="537.0586" x2="712.8359" y1="486.625" y2="486.625"/><polygon fill="#181818" points="262.6323,496.625,252.6323,500.625,262.6323,504.625,258.6323,500.625" style="stroke:#181818;stroke-width:1.0;"/><line style="stroke:#181818;stroke-width:1.0;stroke-dasharray:2.0,2.0;" x1="256.6323" x2="531.0586" y1="500.625" y2="500.625"/><polygon fill="#181818" points="34.9551,525.7578,24.9551,529.7578,34.9551,533.7578,30.9551,529.7578" style="stroke:#181818;stroke-width:1.0;"/><line style="stroke:#181818;stroke-width:1.0;stroke-dasharray:2.0,2.0;" x1="28.9551" x2="250.6323" y1="529.7578" y2="529.7578"/><text fill="#000000" font-family="sans-serif" font-size="13" lengthAdjust="spacing" textLength="24.813" x="40.9551" y="524.6919">201</text><rect fill="#EEEEEE" height="3" style="stroke:#EEEEEE;stroke-width:1.0;" width="888.7285" x="0" y="558.3242"/><line style="stroke:#000000;stroke-width:1.0;" x1="0" x2="888.7285" y1="558.3242" y2="558.3242"/><line style="stroke:#000000;stroke-width:1.0;" x1="0" x2="888.7285" y1="561.3242" y2="561.3242"/><rect fill="#EEEEEE" height="23.1328" style="stroke:#000000;stroke-width:2.0;" width="214.8398" x="336.9443" y="547.7578"/><text fill="#000000" font-family="sans-serif" font-size="13" font-weight="bold" lengthAdjust="spacing" textLength="196.314" x="342.9443" y="563.8247">Actualizar un cliente (PUT)</text><polygon fill="#181818" points="239.6323,598.0234,249.6323,602.0234,239.6323,606.0234,243.6323,602.0234" style="stroke:#181818;stroke-width:1.0;"/><line style="stroke:#181818;stroke-width:1.0;" x1="23.9551" x2="245.6323" y1="602.0234" y2="602.0234"/><text fill="#000000" font-family="sans-serif" font-size="13" lengthAdjust="spacing" textLength="179.1372" x="30.9551" y="596.9575">PUT /api/v1/customers/{id}</text><polygon fill="#181818" points="520.0586,627.1563,530.0586,631.1563,520.0586,635.1563,524.0586,631.1563" style="stroke:#181818;stroke-width:1.0;"/><line style="stroke:#181818;stroke-width:1.0;" x1="251.6323" x2="526.0586" y1="631.1563" y2="631.1563"/><text fill="#000000" font-family="sans-serif" font-size="13" lengthAdjust="spacing" textLength="256.4263" x="258.6323" y="626.0903">updateCustomer(id, updatedCustomer)</text><polygon fill="#181818" points="701.8359,656.2891,711.8359,660.2891,701.8359,664.2891,705.8359,660.2891" style="stroke:#181818;stroke-width:1.0;"/><line style="stroke:#181818;stroke-width:1.0;" x1="532.0586" x2="707.8359" y1="660.2891" y2="660.2891"/><text fill="#000000" font-family="sans-serif" font-size="13" lengthAdjust="spacing" textLength="75.3848" x="539.0586" y="655.2231">findById(id)</text><polygon fill="#181818" points="543.0586,685.4219,533.0586,689.4219,543.0586,693.4219,539.0586,689.4219" style="stroke:#181818;stroke-width:1.0;"/><line style="stroke:#181818;stroke-width:1.0;stroke-dasharray:2.0,2.0;" x1="537.0586" x2="712.8359" y1="689.4219" y2="689.4219"/><text fill="#000000" font-family="sans-serif" font-size="13" lengthAdjust="spacing" textLength="63.1465" x="549.0586" y="684.356">Customer</text><polygon fill="#181818" points="701.8359,714.5547,711.8359,718.5547,701.8359,722.5547,705.8359,718.5547" style="stroke:#181818;stroke-width:1.0;"/><line style="stroke:#181818;stroke-width:1.0;" x1="532.0586" x2="707.8359" y1="718.5547" y2="718.5547"/><text fill="#000000" font-family="sans-serif" font-size="13" lengthAdjust="spacing" textLength="157.7773" x="539.0586" y="713.4888">save(updatedCustomer)</text><polygon fill="#181818" points="831.0513,728.5547,841.0513,732.5547,831.0513,736.5547,835.0513,732.5547" style="stroke:#181818;stroke-width:1.0;"/><line style="stroke:#181818;stroke-width:1.0;stroke-dasharray:2.0,2.0;" x1="713.8359" x2="837.0513" y1="732.5547" y2="732.5547"/><polygon fill="#181818" points="724.8359,742.5547,714.8359,746.5547,724.8359,750.5547,720.8359,746.5547" style="stroke:#181818;stroke-width:1.0;"/><line style="stroke:#181818;stroke-width:1.0;stroke-dasharray:2.0,2.0;" x1="718.8359" x2="842.0513" y1="746.5547" y2="746.5547"/><polygon fill="#181818" points="543.0586,756.5547,533.0586,760.5547,543.0586,764.5547,539.0586,760.5547" style="stroke:#181818;stroke-width:1.0;"/><line style="stroke:#181818;stroke-width:1.0;stroke-dasharray:2.0,2.0;" x1="537.0586" x2="712.8359" y1="760.5547" y2="760.5547"/><polygon fill="#181818" points="262.6323,770.5547,252.6323,774.5547,262.6323,778.5547,258.6323,774.5547" style="stroke:#181818;stroke-width:1.0;"/><line style="stroke:#181818;stroke-width:1.0;stroke-dasharray:2.0,2.0;" x1="256.6323" x2="531.0586" y1="774.5547" y2="774.5547"/><polygon fill="#181818" points="34.9551,799.6875,24.9551,803.6875,34.9551,807.6875,30.9551,803.6875" style="stroke:#181818;stroke-width:1.0;"/><line style="stroke:#181818;stroke-width:1.0;stroke-dasharray:2.0,2.0;" x1="28.9551" x2="250.6323" y1="803.6875" y2="803.6875"/><text fill="#000000" font-family="sans-serif" font-size="13" lengthAdjust="spacing" textLength="24.813" x="40.9551" y="798.6216">202</text><rect fill="#EEEEEE" height="3" style="stroke:#EEEEEE;stroke-width:1.0;" width="888.7285" x="0" y="832.2539"/><line style="stroke:#000000;stroke-width:1.0;" x1="0" x2="888.7285" y1="832.2539" y2="832.2539"/><line style="stroke:#000000;stroke-width:1.0;" x1="0" x2="888.7285" y1="835.2539" y2="835.2539"/><rect fill="#EEEEEE" height="23.1328" style="stroke:#000000;stroke-width:2.0;" width="227.0337" x="330.8474" y="821.6875"/><text fill="#000000" font-family="sans-serif" font-size="13" font-weight="bold" lengthAdjust="spacing" textLength="208.5078" x="336.8474" y="837.7544">Eliminar un cliente (DELETE)</text><polygon fill="#181818" points="239.6323,871.9531,249.6323,875.9531,239.6323,879.9531,243.6323,875.9531" style="stroke:#181818;stroke-width:1.0;"/><line style="stroke:#181818;stroke-width:1.0;" x1="23.9551" x2="245.6323" y1="875.9531" y2="875.9531"/><text fill="#000000" font-family="sans-serif" font-size="13" lengthAdjust="spacing" textLength="203.6772" x="30.9551" y="870.8872">DELETE /api/v1/customers/{id}</text><polygon fill="#181818" points="520.0586,901.0859,530.0586,905.0859,520.0586,909.0859,524.0586,905.0859" style="stroke:#181818;stroke-width:1.0;"/><line style="stroke:#181818;stroke-width:1.0;" x1="251.6323" x2="526.0586" y1="905.0859" y2="905.0859"/><text fill="#000000" font-family="sans-serif" font-size="13" lengthAdjust="spacing" textLength="126.1089" x="258.6323" y="900.02">deleteCustomer(id)</text><polygon fill="#181818" points="701.8359,930.2188,711.8359,934.2188,701.8359,938.2188,705.8359,934.2188" style="stroke:#181818;stroke-width:1.0;"/><line style="stroke:#181818;stroke-width:1.0;" x1="532.0586" x2="707.8359" y1="934.2188" y2="934.2188"/><text fill="#000000" font-family="sans-serif" font-size="13" lengthAdjust="spacing" textLength="91.6602" x="539.0586" y="929.1528">deleteById(id)</text><polygon fill="#181818" points="831.0513,944.2188,841.0513,948.2188,831.0513,952.2188,835.0513,948.2188" style="stroke:#181818;stroke-width:1.0;"/><line style="stroke:#181818;stroke-width:1.0;stroke-dasharray:2.0,2.0;" x1="713.8359" x2="837.0513" y1="948.2188" y2="948.2188"/><polygon fill="#181818" points="724.8359,958.2188,714.8359,962.2188,724.8359,966.2188,720.8359,962.2188" style="stroke:#181818;stroke-width:1.0;"/><line style="stroke:#181818;stroke-width:1.0;stroke-dasharray:2.0,2.0;" x1="718.8359" x2="842.0513" y1="962.2188" y2="962.2188"/><polygon fill="#181818" points="543.0586,972.2188,533.0586,976.2188,543.0586,980.2188,539.0586,976.2188" style="stroke:#181818;stroke-width:1.0;"/><line style="stroke:#181818;stroke-width:1.0;stroke-dasharray:2.0,2.0;" x1="537.0586" x2="712.8359" y1="976.2188" y2="976.2188"/><polygon fill="#181818" points="262.6323,986.2188,252.6323,990.2188,262.6323,994.2188,258.6323,990.2188" style="stroke:#181818;stroke-width:1.0;"/><line style="stroke:#181818;stroke-width:1.0;stroke-dasharray:2.0,2.0;" x1="256.6323" x2="531.0586" y1="990.2188" y2="990.2188"/><polygon fill="#181818" points="34.9551,1015.3516,24.9551,1019.3516,34.9551,1023.3516,30.9551,1019.3516" style="stroke:#181818;stroke-width:1.0;"/><line style="stroke:#181818;stroke-width:1.0;stroke-dasharray:2.0,2.0;" x1="28.9551" x2="250.6323" y1="1019.3516" y2="1019.3516"/><text fill="#000000" font-family="sans-serif" font-size="13" lengthAdjust="spacing" textLength="24.813" x="40.9551" y="1014.2856">204</text><!--SRC=[jPBFRi8m3CRlUGgB4qX31RHJfKxYJpKXRG8DU82GU5EaadPfoiIclVkIj5rfIpSkdEhON-tFFvao7IlOfQX8GfKMJ2HKQkXDryiUq1JCjrwOPwcE3wWsg8w2eHCLyMNX2oPnAioKazDMpxhyEPPlyMBcD0SR4n84iDfhbAWWay0YWL8Zz1_3xG22W5ZJC7om5dqmIV1e8hpZs6F5vDJx4loRcBgL5IPzU1MIb-PcfoNl2puWHTKAAuUvzbTJ5QpCcVJXFKFptfz0SE9IC6pqgFrtRgGQMcwHUpKlkviFaz78KPWhf7K6wzNc0WIRRLDe0M2cdSOIGL_YHnbtSaZf4Ul2nb85ZHiW63i4KwOp6edF9eVT9GoxgsyXI_Wv2i7lYXJ_5qddQPptBxlyoRKryKPiMsWd3cqOYOEG3R2By2dSXcssUVvQl1mZhE7jf9ahktZUxhhkVm00]--></g></svg>